<?xml version="1.0" encoding="UTF-8"?>
<svg width="50px" height="50px" viewBox="0 0 50 50" version="1.1" xmlns="http://www.w3.org/2000/svg" xmlns:xlink="http://www.w3.org/1999/xlink">
    <!-- Generator: Sketch 52.5 (67469) - http://www.bohemiancoding.com/sketch -->
    <title>logo--white</title>
    <desc>Created with Sketch.</desc>
    <g id="logo--white" stroke="none" stroke-width="1" fill="none" fill-rule="evenodd">
        <path d="M43.0583501,42.2654449 C43.0583501,42.6654146 42.7366231,42.9896542 42.3397528,42.9896542 C41.9428825,42.9896542 41.6211555,42.6654146 41.6211555,42.2654449 L41.6211555,33.8646172 C41.6211555,29.6169385 38.2044151,26.1735146 33.9896522,26.1735146 C29.7748893,26.1735146 26.3581489,29.6169385 26.3581489,33.8646172 L26.3581489,42.2654449 C26.3581489,42.6654146 26.0364219,42.9896542 25.6395516,42.9896542 C25.2426813,42.9896542 24.9209543,42.6654146 24.9209543,42.2654449 L24.9209543,33.8646172 C24.9209543,29.6169385 21.5042139,26.1735146 17.289451,26.1735146 L7.63150331,26.1735146 C7.23463298,26.1735146 6.91290601,25.8492751 6.91290601,25.4493054 C6.91290601,25.0493356 7.23463298,24.7250961 7.63150331,24.7250961 L17.3469388,24.7250961 C21.5617017,24.7250961 24.9784421,21.2816722 24.9784421,17.0339935 C24.9784421,12.7863148 21.5617017,9.34289093 17.3469388,9.34289093 L7.63150331,9.34289093 C7.23463298,9.34289093 6.91290601,9.01865139 6.91290601,8.61868164 C6.91290601,8.2187119 7.23463298,7.89447236 7.63150331,7.89447236 L42.3253809,7.89447236 C42.7222512,7.89447236 43.0439782,8.2187119 43.0439782,8.61868164 C43.0439782,9.01865139 42.7222512,9.34289093 42.3253809,9.34289093 L34.0040241,9.34289093 C29.7892613,9.34289093 26.3725208,12.7863148 26.3725208,17.0339935 L26.3725208,24.7830328 L33.2997988,24.7830328 L33.2997988,17.0919302 C33.2997988,16.6999599 33.6150912,16.3822051 34.0040241,16.3822051 L42.3253809,16.3822051 C46.5401438,16.3822051 49.9568842,12.9387812 49.9568842,8.69110257 C49.9568842,4.44342391 46.5401438,1 42.3253809,1 L7.63150331,1 C3.4167405,1.00000013 2.27436499e-07,4.443424 2.27436499e-07,8.69110257 C2.27436499e-07,12.9387811 3.4167405,16.382205 7.63150331,16.3822051 L17.3469388,16.3822051 C17.7438091,16.3822051 18.0655361,16.7064447 18.0655361,17.1064144 C18.0655361,17.5063842 17.7438091,17.8306237 17.3469388,17.8306237 L7.63150331,17.8306237 C3.41674041,17.8306237 0,21.2740476 0,25.5217263 C0,29.7694049 3.41674041,33.2128289 7.63150331,33.2128289 L17.3469388,33.2128289 C17.7279343,33.2128289 18.0367922,33.5240988 18.0367922,33.9080698 L18.0367922,34.6033107 L7.63150331,34.6033107 C3.54154222,34.7821439 0.31704089,38.1758755 0.31704089,42.3016553 C0.31704089,46.4274351 3.54154222,49.8211668 7.63150331,50 L16.6570854,50 L16.6570854,42.9606858 L7.63150331,42.9606858 C7.23463298,42.9606858 6.91290601,42.6364462 6.91290601,42.2364765 C6.91290601,41.8365068 7.23463298,41.5122672 7.63150331,41.5122672 L18.0367922,41.5122672 L18.0367922,42.2219923 C18.0367922,46.469671 21.4535326,49.9130949 25.6682955,49.9130949 C29.8830584,49.9130949 33.2997988,46.469671 33.2997988,42.2219923 L33.2997988,33.8211646 C33.2997988,33.4211949 33.6215258,33.0969554 34.0183961,33.0969554 C34.4152664,33.0969554 34.7369934,33.4211949 34.7369934,33.8211646 L34.7369934,42.2219923 C34.7369934,46.469671 38.1537338,49.9130949 42.3684967,49.9130949 C46.5832596,49.9130949 50,46.469671 50,42.2219923 L50,26.1735146 L43.0583501,26.1735146 L43.0583501,42.2654449 Z" id="Path" fill="#FFFFFF"></path>
    </g>
</svg>