<?xml version="1.0" encoding="UTF-8"?>
<svg width="50px" height="50px" viewBox="0 0 50 50" version="1.1" xmlns="http://www.w3.org/2000/svg" xmlns:xlink="http://www.w3.org/1999/xlink">
    <!-- Generator: Sketch 52.5 (67469) - http://www.bohemiancoding.com/sketch -->
    <title>logo--white</title>
    <desc>Created with Sketch.</desc>
    <g id="logo--white" stroke="none" stroke-width="1" fill="none" fill-rule="evenodd">
        <path d="M40.8260563,39.5796187 C40.8260563,39.9271434 40.5445452,40.2088679 40.1972837,40.2088679 C39.8500222,40.2088679 39.5685111,39.9271434 39.5685111,39.5796187 L39.5685111,32.2803281 C39.5685111,28.5896155 36.5788632,25.5977017 32.8909457,25.5977017 C29.2030281,25.5977017 26.2133803,28.5896155 26.2133803,32.2803281 L26.2133803,39.5796187 C26.2133803,39.9271434 25.9318692,40.2088679 25.5846076,40.2088679 C25.2373461,40.2088679 24.955835,39.9271434 24.955835,39.5796187 L24.955835,32.2803281 C24.955835,28.5896155 21.9661871,25.5977017 18.2782696,25.5977017 L9.82756539,25.5977017 C9.48030385,25.5977017 9.19879276,25.3159773 9.19879276,24.9684526 C9.19879276,24.6209278 9.48030385,24.3392034 9.82756539,24.3392034 L18.3285714,24.3392034 C22.016489,24.3392034 25.0061368,21.3472896 25.0061368,17.656577 C25.0061368,13.9658644 22.016489,10.9739506 18.3285714,10.9739506 L9.82756539,10.9739506 C9.48030385,10.9739506 9.19879276,10.6922262 9.19879276,10.3447014 C9.19879276,9.99717672 9.48030385,9.71545226 9.82756539,9.71545226 L40.1847082,9.71545226 C40.5319698,9.71545226 40.8134809,9.99717672 40.8134809,10.3447014 C40.8134809,10.6922262 40.5319698,10.9739506 40.1847082,10.9739506 L32.9035211,10.9739506 C29.2156036,10.9739506 26.2259557,13.9658644 26.2259557,17.656577 L26.2259557,24.3895433 L32.2873239,24.3895433 L32.2873239,17.7069169 C32.2873239,17.3663427 32.5632048,17.0902527 32.9035211,17.0902527 L40.1847082,17.0902527 C43.8726258,17.0902527 46.8622736,14.098339 46.8622736,10.4076264 C46.8622736,6.71691374 43.8726258,3.725 40.1847082,3.725 L9.82756539,3.725 C6.13964794,3.72500011 3.1500002,6.71691381 3.1500002,10.4076264 C3.1500002,14.0983389 6.13964794,17.0902526 9.82756539,17.0902527 L18.3285714,17.0902527 C18.675833,17.0902527 18.9573441,17.3719772 18.9573441,17.7195019 C18.9573441,18.0670267 18.675833,18.3487511 18.3285714,18.3487511 L9.82756539,18.3487511 C6.13964786,18.3487511 3.15,21.3406648 3.15,25.0313775 C3.15,28.7220901 6.13964786,31.7140038 9.82756539,31.7140038 L18.3285714,31.7140038 C18.6619425,31.7140038 18.9321932,31.9844593 18.9321932,32.3180831 L18.9321932,32.9221623 L9.82756539,32.9221623 C6.24884945,33.0775464 3.42741078,36.0262837 3.42741078,39.6110811 C3.42741078,43.1958786 6.24884945,46.1446158 9.82756539,46.3 L17.7249497,46.3 L17.7249497,40.1836979 L9.82756539,40.1836979 C9.48030385,40.1836979 9.19879276,39.9019734 9.19879276,39.5544487 C9.19879276,39.206924 9.48030385,38.9251995 9.82756539,38.9251995 L18.9321932,38.9251995 L18.9321932,39.5418637 C18.9321932,43.2325764 21.921841,46.2244901 25.6097586,46.2244901 C29.2976761,46.2244901 32.2873239,43.2325764 32.2873239,39.5418637 L32.2873239,32.2425732 C32.2873239,31.8950484 32.568835,31.613324 32.9160966,31.613324 C33.2633581,31.613324 33.5448692,31.8950484 33.5448692,32.2425732 L33.5448692,39.5418637 C33.5448692,43.2325764 36.5345171,46.2244901 40.2224346,46.2244901 C43.9103521,46.2244901 46.9,43.2325764 46.9,39.5418637 L46.9,25.5977017 L40.8260563,25.5977017 L40.8260563,39.5796187 Z" id="Path" fill="#FFFFFF"></path>
    </g>
</svg>